<svg width="32" height="33" viewBox="0 0 32 33" fill="none" xmlns="http://www.w3.org/2000/svg">
<path d="M17 20.2476L21 16.2476M21 16.2476L17 12.2476M21 16.2476H11M28 16.2476C28 17.8234 27.6896 19.3839 27.0866 20.8398C26.4835 22.2957 25.5996 23.6185 24.4853 24.7328C23.371 25.8471 22.0481 26.7311 20.5922 27.3341C19.1363 27.9372 17.5759 28.2476 16 28.2476C14.4241 28.2476 12.8637 27.9372 11.4078 27.3341C9.95189 26.7311 8.62902 25.8471 7.51472 24.7328C6.40042 23.6185 5.5165 22.2957 4.91345 20.8398C4.31039 19.3839 4 17.8234 4 16.2476C4 13.065 5.26428 10.0127 7.51472 7.76228C9.76516 5.51184 12.8174 4.24756 16 4.24756C19.1826 4.24756 22.2348 5.51184 24.4853 7.76228C26.7357 10.0127 28 13.065 28 16.2476Z" stroke="#46434E" stroke-width="2" stroke-linecap="round" stroke-linejoin="round"/>
</svg>
